<svg id="Livello_1" data-name="Livello 1" xmlns="http://www.w3.org/2000/svg" viewBox="0 0 509.89 142.92"><path fill="#3381b8" d="M51.80859375,99.8984375q0,6.9609375-5.009765625,10.96875t-13.939453125,4.0078125q-8.2265625,0-14.5546875-3.09375l0-10.125q5.203125,2.3203125,8.806640625,3.26953125t6.591796875,0.94921875q3.5859375,0,5.501953125-1.37109375t1.916015625-4.078125q0-1.51171875-0.84375-2.689453125t-2.478515625-2.267578125t-6.662109375-3.48046875q-4.7109375-2.21484375-7.06640625-4.25390625t-3.76171875-4.74609375t-1.40625-6.328125q0-6.8203125,4.623046875-10.72265625t12.779296875-3.90234375q4.0078125,0,7.646484375,0.94921875t7.611328125,2.671875l-3.515625,8.47265625q-4.11328125-1.6875-6.802734375-2.35546875t-5.291015625-0.66796875q-3.09375,0-4.74609375,1.44140625t-1.65234375,3.76171875q0,1.44140625,0.66796875,2.513671875t2.126953125,2.07421875t6.908203125,3.603515625q7.20703125,3.4453125,9.87890625,6.908203125t2.671875,8.490234375z M90.1911328125,114.171875l-2.07421875-5.34375l-0.28125,0q-2.70703125,3.41015625-5.572265625,4.728515625t-7.470703125,1.318359375q-5.66015625,0-8.912109375-3.234375t-3.251953125-9.2109375q0-6.2578125,4.376953125-9.228515625t13.201171875-3.287109375l6.8203125-0.2109375l0-1.72265625q0-5.9765625-6.1171875-5.9765625q-4.7109375,0-11.07421875,2.84765625l-3.55078125-7.2421875q6.78515625-3.55078125,15.046875-3.55078125q7.91015625,0,12.12890625,3.4453125t4.21875,10.4765625l0,26.19140625l-7.48828125,0z M87.0270703125,95.9609375l-4.1484375,0.140625q-4.67578125,0.140625-6.9609375,1.6875t-2.28515625,4.7109375q0,4.53515625,5.203125,4.53515625q3.7265625,0,5.958984375-2.14453125t2.232421875-5.6953125l0-3.234375z M148.858828125,114.171875l-10.72265625,0l0-22.95703125q0-4.25390625-1.423828125-6.380859375t-4.482421875-2.126953125q-4.11328125,0-5.9765625,3.0234375t-1.86328125,9.94921875l0,18.4921875l-10.72265625,0l0-39.3046875l8.19140625,0l1.44140625,5.02734375l0.59765625,0q1.58203125-2.70703125,4.5703125-4.236328125t6.85546875-1.529296875q8.82421875,0,11.953125,5.765625l0.94921875,0q1.58203125-2.7421875,4.658203125-4.25390625t6.943359375-1.51171875q6.6796875,0,10.107421875,3.427734375t3.427734375,10.986328125l0,25.62890625l-10.7578125,0l0-22.95703125q0-4.25390625-1.423828125-6.380859375t-4.482421875-2.126953125q-3.9375,0-5.888671875,2.8125t-1.951171875,8.9296875l0,19.72265625z M210.9015234375,114.875q-6.92578125,0-10.86328125-5.02734375l-0.5625,0q0.5625,4.921875,0.5625,5.6953125l0,15.92578125l-10.72265625,0l0-56.6015625l8.71875,0l1.51171875,5.09765625l0.4921875,0q3.76171875-5.8359375,11.14453125-5.8359375q6.9609375,0,10.8984375,5.37890625t3.9375,14.94140625q0,6.29296875-1.845703125,10.93359375t-5.255859375,7.06640625t-8.015625,2.42578125z M207.7374609375,82.70703125q-3.97265625,0-5.80078125,2.443359375t-1.8984375,8.068359375l0,1.16015625q0,6.328125,1.880859375,9.0703125t5.958984375,2.7421875q7.20703125,0,7.20703125-11.8828125q0-5.80078125-1.775390625-8.701171875t-5.572265625-2.900390625z M250.5496875,114.171875l-10.72265625,0l0-54.703125l10.72265625,0l0,54.703125z M283.0259765625,81.7578125q-3.41015625,0-5.34375,2.162109375t-2.21484375,6.134765625l15.046875,0q-0.0703125-3.97265625-2.07421875-6.134765625t-5.4140625-2.162109375z M284.5376953125,114.875q-9.4921875,0-14.8359375-5.23828125t-5.34375-14.8359375q0-9.87890625,4.939453125-15.275390625t13.658203125-5.396484375q8.33203125,0,12.97265625,4.74609375t4.640625,13.11328125l0,5.203125l-25.34765625,0q0.17578125,4.5703125,2.70703125,7.13671875t7.1015625,2.56640625q3.55078125,0,6.71484375-0.73828125t6.609375-2.35546875l0,8.296875q-2.8125,1.40625-6.01171875,2.091796875t-7.8046875,0.685546875z"/><path fill="#c44155" d="M320.080390625,114.171875l0-51.3984375l10.8984375,0l0,42.3984375l20.84765625,0l0,9l-31.74609375,0z M373.4043359375,94.44921875q0,5.8359375,1.916015625,8.82421875t6.240234375,2.98828125q4.2890625,0,6.169921875-2.970703125t1.880859375-8.841796875q0-5.8359375-1.8984375-8.75390625t-6.22265625-2.91796875q-4.2890625,0-6.1875,2.900390625t-1.8984375,8.771484375z M400.5801171875,94.44921875q0,9.59765625-5.0625,15.01171875t-14.09765625,5.4140625q-5.66015625,0-9.984375-2.478515625t-6.64453125-7.119140625t-2.3203125-10.828125q0-9.6328125,5.02734375-14.9765625t14.1328125-5.34375q5.66015625,0,9.984375,2.4609375t6.64453125,7.06640625t2.3203125,10.79296875z M448.59546875,74.8671875l0,5.44921875l-6.15234375,1.58203125q1.6875,2.63671875,1.6875,5.90625q0,6.328125-4.412109375,9.861328125t-12.251953125,3.533203125l-1.93359375-0.10546875l-1.58203125-0.17578125q-1.65234375,1.265625-1.65234375,2.8125q0,2.3203125,5.90625,2.3203125l6.6796875,0q6.46875,0,9.861328125,2.77734375t3.392578125,8.15625q0,6.890625-5.748046875,10.6875t-16.505859375,3.796875q-8.2265625,0-12.568359375-2.865234375t-4.341796875-8.033203125q0-3.55078125,2.21484375-5.94140625t6.50390625-3.41015625q-1.65234375-0.703125-2.8828125-2.302734375t-1.23046875-3.392578125q0-2.25,1.30078125-3.744140625t3.76171875-2.935546875q-3.09375-1.3359375-4.904296875-4.2890625t-1.810546875-6.9609375q0-6.43359375,4.18359375-9.94921875t11.953125-3.515625q1.65234375,0,3.919921875,0.298828125t2.900390625,0.439453125l13.7109375,0z M418.255625,119.7265625q0,2.21484375,2.126953125,3.48046875t5.958984375,1.265625q5.765625,0,9.03515625-1.58203125t3.26953125-4.32421875q0-2.21484375-1.93359375-3.05859375t-5.9765625-0.84375l-5.5546875,0q-2.953125,0-4.939453125,1.388671875t-1.986328125,3.673828125z M422.15796875,87.734375q0,3.19921875,1.458984375,5.0625t4.447265625,1.86328125q3.0234375,0,4.4296875-1.86328125t1.40625-5.0625q0-7.1015625-5.8359375-7.1015625q-5.90625,0-5.90625,7.1015625z M468.5561328125,94.44921875q0,5.8359375,1.916015625,8.82421875t6.240234375,2.98828125q4.2890625,0,6.169921875-2.970703125t1.880859375-8.841796875q0-5.8359375-1.8984375-8.75390625t-6.22265625-2.91796875q-4.2890625,0-6.1875,2.900390625t-1.8984375,8.771484375z M495.7319140625,94.44921875q0,9.59765625-5.0625,15.01171875t-14.09765625,5.4140625q-5.66015625,0-9.984375-2.478515625t-6.64453125-7.119140625t-2.3203125-10.828125q0-9.6328125,5.02734375-14.9765625t14.1328125-5.34375q5.66015625,0,9.984375,2.4609375t6.64453125,7.06640625t2.3203125,10.79296875z"/></svg>